<svg width="20" height="20" viewBox="0 0 20 20" fill="none" xmlns="http://www.w3.org/2000/svg">
<path d="M10 10.5417C9.61944 10.5383 9.24664 10.6243 8.9318 10.7882C8.61696 10.9522 8.37519 11.1861 8.23902 11.4586C8.10285 11.7311 8.07883 12.029 8.17019 12.3122C8.26154 12.5955 8.46389 12.8505 8.75 13.0429V14.375C8.75 14.6292 8.8817 14.8729 9.11612 15.0526C9.35054 15.2324 9.66848 15.3333 10 15.3333C10.3315 15.3333 10.6495 15.2324 10.8839 15.0526C11.1183 14.8729 11.25 14.6292 11.25 14.375V13.0429C11.5361 12.8505 11.7385 12.5955 11.8298 12.3122C11.9212 12.029 11.8972 11.7311 11.761 11.4586C11.6248 11.1861 11.383 10.9522 11.0682 10.7882C10.7534 10.6243 10.3806 10.5383 10 10.5417ZM16.25 6.70833V4.79167C16.25 3.52084 15.5915 2.30206 14.4194 1.40345C13.2473 0.504835 11.6576 0 10 0C8.3424 0 6.75269 0.504835 5.58058 1.40345C4.40848 2.30206 3.75 3.52084 3.75 4.79167V6.70833C2.75544 6.70833 1.80161 7.01123 1.09835 7.5504C0.395088 8.08957 0 8.82084 0 9.58333V16.2917C0 17.0542 0.395088 17.7854 1.09835 18.3246C1.80161 18.8638 2.75544 19.1667 3.75 19.1667H16.25C17.2446 19.1667 18.1984 18.8638 18.9017 18.3246C19.6049 17.7854 20 17.0542 20 16.2917V9.58333C20 8.82084 19.6049 8.08957 18.9017 7.5504C18.1984 7.01123 17.2446 6.70833 16.25 6.70833ZM6.25 4.79167C6.25 4.02917 6.64509 3.2979 7.34835 2.75873C8.05161 2.21957 9.00544 1.91667 10 1.91667C10.9946 1.91667 11.9484 2.21957 12.6517 2.75873C13.3549 3.2979 13.75 4.02917 13.75 4.79167V6.70833H6.25V4.79167ZM17.5 16.2917C17.5 16.5458 17.3683 16.7896 17.1339 16.9693C16.8995 17.149 16.5815 17.25 16.25 17.25H3.75C3.41848 17.25 3.10054 17.149 2.86612 16.9693C2.6317 16.7896 2.5 16.5458 2.5 16.2917V9.58333C2.5 9.32917 2.6317 9.08541 2.86612 8.90569C3.10054 8.72597 3.41848 8.625 3.75 8.625H16.25C16.5815 8.625 16.8995 8.72597 17.1339 8.90569C17.3683 9.08541 17.5 9.32917 17.5 9.58333V16.2917Z" fill="#FFFAFF"/>
</svg>
