<svg width="26" height="35" viewBox="0 0 26 35" fill="none" xmlns="http://www.w3.org/2000/svg">
<path d="M4.74073 15.1471H2.51851V10.4412C2.51851 4.70588 7.25925 0 13.037 0C18.3704 0 22.8148 3.89706 23.4815 9.11765L21.3333 9.41177C20.8148 5.29412 17.2592 2.20588 13.037 2.20588C8.44443 2.20588 4.74073 5.88235 4.74073 10.4412V15.1471Z" fill="#FFFAFF"/>
<path d="M22.4444 35H3.55556C1.62963 35 0 33.4559 0 31.4706V17.4265C0 15.5147 1.55556 13.897 3.55556 13.897H22.4444C24.3704 13.897 26 15.4412 26 17.4265V31.4706C26 33.4559 24.4444 35 22.4444 35ZM3.62963 16.3235C2.96296 16.3235 2.44445 16.8382 2.44445 17.5V31.5441C2.44445 32.2059 2.96296 32.7206 3.62963 32.7206H22.5185C23.1852 32.7206 23.7037 32.2059 23.7037 31.5441V17.5C23.7037 16.8382 23.1852 16.3235 22.5185 16.3235H3.62963Z" fill="#FFFAFF"/>
<path d="M15.4074 20.9559C15.4074 22.2794 14.3704 23.3088 13.037 23.3088C11.7037 23.3088 10.6667 22.2794 10.6667 20.9559C10.6667 19.6323 11.7037 18.6029 13.037 18.6029C14.3704 18.6029 15.4074 19.7059 15.4074 20.9559Z" fill="#FFFAFF"/>
<path d="M13.6296 20.9559H12.4444L11.2593 28.0147H14.8148L13.6296 20.9559Z" fill="#FFFAFF"/>
</svg>
