<svg width="24" height="26" viewBox="0 0 24 26" fill="none" xmlns="http://www.w3.org/2000/svg">
<path d="M19.9567 24.9197L19.9568 24.9197C20.4607 24.5201 21.1175 23.798 21.9222 22.7505C22.511 21.9842 23.0192 21.1506 23.4487 20.2448C23.6205 19.8721 23.7824 19.4843 23.9361 19.0799C23.2173 18.7999 22.57 18.4091 21.9894 17.9061C20.6853 16.8026 20.0207 15.4112 20.0012 13.7402L20.0012 13.7402C19.9801 11.6068 21.0366 9.94166 23.1626 8.75189C21.9741 7.23283 20.1954 6.38673 17.8272 6.21224L17.8271 6.21223C16.9502 6.14427 15.8766 6.31666 14.6005 6.73589C13.9242 6.96248 13.386 7.13277 12.9873 7.24645C12.7879 7.30329 12.623 7.3461 12.4929 7.37473C12.3637 7.40316 12.2659 7.41826 12.2024 7.41826C12.0391 7.41826 11.7762 7.36829 11.4175 7.27179C11.0576 7.17496 10.5975 7.03024 10.0379 6.83848M19.9567 24.9197L10.0511 6.80024M19.9567 24.9197L19.9559 24.9204C19.1745 25.5764 18.3395 25.9109 17.4466 25.9301C16.8046 25.93 16.0275 25.7631 15.1197 25.4223L15.1196 25.4222C14.2026 25.0807 13.3582 24.911 12.5847 24.911C11.7739 24.911 10.9057 25.0806 9.97854 25.4222L9.9785 25.4222C9.05511 25.7635 8.31471 25.9399 7.75137 25.9574L7.75105 25.9574C6.89746 25.9906 6.04335 25.6479 5.1866 24.9206L5.18562 24.9198C4.63927 24.4847 3.95343 23.7367 3.12952 22.6734L3.12946 22.6733C2.24765 21.5406 1.52231 20.2266 0.953859 18.7278M19.9567 24.9197L0.953859 18.7278M10.0379 6.83848L10.0511 6.80024M10.0379 6.83848C10.038 6.83849 10.038 6.83849 10.038 6.8385L10.0511 6.80024M10.0379 6.83848C8.91812 6.4571 8.0207 6.26441 7.33914 6.26435M10.0511 6.80024C8.92952 6.41828 8.02702 6.22392 7.33881 6.22392M7.33914 6.26435C7.33923 6.26434 7.33933 6.26434 7.33943 6.26434L7.33881 6.22392M7.33914 6.26435C6.08776 6.28339 4.92635 6.58033 3.85145 7.16285C2.77639 7.74546 1.91787 8.53875 1.27245 9.54445L1.27223 9.54478C0.451176 10.7966 0.0404222 12.2914 0.0404222 14.0272C0.0404222 15.5428 0.345173 17.1092 0.953859 18.7278M7.33914 6.26435C7.33903 6.26435 7.33892 6.26435 7.33881 6.26435V6.22392M7.33881 6.22392L0.953859 18.7278M5.16044 24.9514C6.02251 25.6832 6.88616 26.0315 7.75262 25.9978C8.32235 25.9801 9.06752 25.802 9.99252 25.4601L5.16044 24.9514ZM5.16044 24.9514C4.61023 24.5132 3.92202 23.7622 3.09757 22.6981L5.16044 24.9514ZM23.1983 8.73198C23.2067 8.74272 23.2151 8.7535 23.2234 8.7643C23.2115 8.77091 23.1996 8.77753 23.1877 8.78417L23.1983 8.73198ZM13.6737 2.00325L13.6739 2.00304C14.1975 1.45437 14.8641 0.997347 15.674 0.632305C16.4684 0.278837 17.2191 0.0813033 17.9245 0.0423112C17.9423 0.201828 17.9498 0.361466 17.9498 0.520148C17.9498 1.80845 17.4346 3.01305 16.4031 4.13069C15.1655 5.45166 13.6747 6.21433 12.0613 6.10633C12.0433 5.96178 12.0329 5.81026 12.0329 5.65162C12.0329 4.41588 12.6225 3.08962 13.6737 2.00325Z" fill="#FFFAFF" stroke="#FFFAFF" stroke-width="0.078357"/>
</svg>
