<svg width="40" height="38" viewBox="0 0 40 38" fill="none" xmlns="http://www.w3.org/2000/svg">
<path d="M12.5 21.4782H0.833334C0.61232 21.4782 0.400358 21.3912 0.244078 21.2363C0.0877974 21.0814 0 20.8713 0 20.6522V0.826086C0 0.606995 0.0877974 0.396876 0.244078 0.241955C0.400358 0.0870338 0.61232 0 0.833334 0H12.5C12.721 0 12.933 0.0870338 13.0893 0.241955C13.2455 0.396876 13.3333 0.606995 13.3333 0.826086V20.6522C13.3333 20.8713 13.2455 21.0814 13.0893 21.2363C12.933 21.3912 12.721 21.4782 12.5 21.4782ZM1.66667 19.8261H11.6667V1.65217H1.66667V19.8261Z" fill="black"/>
<path d="M21.6667 38C19.9367 38 18.6983 37.0351 18.645 36.9938C18.5477 36.9161 18.4691 36.8177 18.4152 36.7059C18.3613 36.5941 18.3333 36.4717 18.3333 36.3478V30.747L13.5317 20.4358L12.1267 19.7402C12.0287 19.6917 11.9414 19.6246 11.8696 19.5426C11.7978 19.4606 11.743 19.3655 11.7084 19.2625C11.6737 19.1596 11.6598 19.0509 11.6675 18.9426C11.6753 18.8344 11.7044 18.7287 11.7533 18.6316C11.8521 18.4355 12.0254 18.2863 12.2352 18.2169C12.339 18.1826 12.4487 18.1688 12.5579 18.1765C12.6671 18.1841 12.7737 18.213 12.8717 18.2615L14.5383 19.0876C14.7077 19.1714 14.843 19.3102 14.9217 19.4808L19.9217 30.2199C19.9733 30.3278 20.0001 30.4458 20 30.5652V35.8984C20.345 36.0884 20.9483 36.3478 21.6667 36.3478C22.58 36.3478 25 34.0959 25 31.3913C25 28.4851 23.4033 24.2919 23.3883 24.2506C23.3406 24.1257 23.3242 23.9911 23.3405 23.8585C23.3567 23.7258 23.4052 23.5991 23.4817 23.4891C23.5583 23.3791 23.6606 23.2892 23.7799 23.227C23.8992 23.1648 24.0319 23.1323 24.1667 23.1321H35.8333C37.2117 23.1321 38.3333 22.0202 38.3333 20.6538C38.3333 19.7947 37.885 19.0083 37.135 18.5506C37.0103 18.4731 36.9085 18.3643 36.8397 18.2352C36.771 18.1062 36.7379 17.9615 36.7436 17.8157C36.7494 17.6699 36.7938 17.5281 36.8725 17.4048C36.9512 17.2815 37.0613 17.1809 37.1917 17.1132C37.8967 16.7531 38.3333 16.0525 38.3333 15.2826C38.3333 14.2401 37.5383 13.3645 36.4867 13.2455C36.3851 13.3396 36.2613 13.4069 36.1266 13.4413C35.9919 13.4756 35.8507 13.4758 35.7159 13.4419C35.5811 13.408 35.4571 13.3411 35.3552 13.2473C35.2533 13.1535 35.1768 13.0359 35.1327 12.9051C35.0886 12.7744 35.0784 12.6347 35.103 12.4991C35.1275 12.3634 35.1861 12.236 35.2733 12.1286C35.3604 12.0212 35.4734 11.9372 35.6019 11.8844C35.7303 11.8316 35.8701 11.8116 36.0083 11.8263C36.4317 11.4281 36.6667 10.8945 36.6667 10.3261C36.6667 9.28358 35.8717 8.40793 34.82 8.28898C34.7184 8.38394 34.5943 8.45201 34.4592 8.48691C34.324 8.52181 34.1822 8.52242 34.0468 8.48869C33.9114 8.45495 33.7867 8.38796 33.6842 8.29387C33.5818 8.19979 33.5049 8.08166 33.4607 7.95037C33.4164 7.81908 33.4062 7.67885 33.431 7.54262C33.4559 7.4064 33.5149 7.27856 33.6026 7.1709C33.6904 7.06324 33.8041 6.97922 33.9333 6.92659C34.0624 6.87396 34.2029 6.85441 34.3417 6.86976C34.765 6.47158 35 5.93793 35 5.36959C35 4.23124 34.065 3.30437 32.9167 3.30437H17.5C16.1467 3.30437 13.8783 3.93385 13.09 4.71533C12.9328 4.8658 12.7223 4.94907 12.5038 4.94719C12.2853 4.9453 12.0763 4.85843 11.9218 4.70526C11.7673 4.5521 11.6797 4.34491 11.6778 4.12831C11.6759 3.91171 11.7599 3.70304 11.9117 3.54724C13.16 2.31141 15.9583 1.6522 17.5 1.6522H32.9167C33.5543 1.65371 34.181 1.81616 34.7378 2.12424C35.2946 2.43231 35.7631 2.87586 36.0991 3.41308C36.4351 3.9503 36.6275 4.56348 36.6583 5.19484C36.6891 5.8262 36.5572 6.45493 36.275 7.02176C37.1581 7.46091 37.8295 8.22932 38.1419 9.15847C38.4544 10.0876 38.3824 11.1017 37.9417 11.9783C38.4678 12.2405 38.9238 12.6224 39.2725 13.0929C39.6212 13.5633 39.8527 14.1088 39.9479 14.6849C40.0432 15.261 39.9995 15.8512 39.8206 16.4074C39.6416 16.9635 39.3325 17.4698 38.9183 17.8848C39.6083 18.6332 40 19.6097 40 20.6522C40 22.9289 38.1317 24.7826 35.8333 24.7826H25.34C25.85 26.3175 26.6667 29.1311 26.6667 31.3913C26.6667 34.9765 23.595 38 21.6667 38Z" fill="black"/>
</svg>
