<svg width="21" height="25" viewBox="0 0 21 25" fill="none" xmlns="http://www.w3.org/2000/svg">
<path d="M20.5461 19.4826C20.1693 20.356 19.7234 21.16 19.2066 21.8992C18.5023 22.9069 17.9256 23.6044 17.4811 23.9917C16.7921 24.6275 16.054 24.9531 15.2635 24.9716C14.696 24.9716 14.0117 24.8096 13.215 24.4809C12.4158 24.1537 11.6813 23.9917 11.0097 23.9917C10.3054 23.9917 9.54995 24.1537 8.74194 24.4809C7.93271 24.8096 7.2808 24.9809 6.78237 24.9979C6.02435 25.0303 5.26879 24.6954 4.51461 23.9917C4.03325 23.5704 3.43117 22.8482 2.7099 21.8251C1.93604 20.7325 1.29982 19.4656 0.801391 18.0212C0.267592 16.4611 0 14.9503 0 13.4877C0 11.8123 0.360787 10.3673 1.08344 9.15636C1.65138 8.1837 2.40694 7.41644 3.35258 6.85319C4.29823 6.28993 5.32 6.00291 6.42035 5.98454C7.02244 5.98454 7.81199 6.17142 8.79315 6.53869C9.77156 6.9072 10.3998 7.09408 10.6752 7.09408C10.8811 7.09408 11.579 6.87556 12.7621 6.43993C13.8809 6.03593 14.8252 5.86865 15.5987 5.93454C17.6949 6.10429 19.2697 6.93343 20.317 8.42722C18.4423 9.567 17.5149 11.1634 17.5334 13.2113C17.5503 14.8065 18.127 16.1339 19.2604 17.1879C19.7741 17.6771 20.3477 18.0552 20.986 18.3237C20.8475 18.7264 20.7014 19.1122 20.5461 19.4826ZM15.7387 0.500142C15.7387 1.75043 15.2835 2.91781 14.3761 3.99834C13.2812 5.28287 11.9567 6.02513 10.5205 5.908C10.5022 5.75801 10.4916 5.60014 10.4916 5.43425C10.4916 4.23398 11.0123 2.94945 11.937 1.89917C12.3987 1.3674 12.9859 0.925238 13.6979 0.572516C14.4084 0.225057 15.0805 0.0329053 15.7126 0C15.731 0.167144 15.7387 0.334314 15.7387 0.500142Z" fill="white"/>
</svg>
