<svg width="27" height="27" viewBox="0 0 27 27" fill="none" xmlns="http://www.w3.org/2000/svg">
<path d="M13.5 26.325C6.04393 26.325 0 20.4322 0 13.1625C0 5.89283 6.04393 0 13.5 0C20.9561 0 27 5.89283 27 13.1625C27 20.4322 20.9561 26.325 13.5 26.325ZM13.5 1.4319C6.89121 1.4319 1.46862 6.71893 1.46862 13.1625C1.46862 19.6061 6.89121 24.8931 13.5 24.8931C20.1088 24.8931 25.5314 19.6061 25.5314 13.1625C25.5314 6.71893 20.1088 1.4319 13.5 1.4319Z" fill="#134563"/>
<path d="M6.32635 12.3914H20.6736V13.9335H6.32635V12.3914Z" fill="#134563"/>
<path d="M12.7092 6.16819H14.2908V20.1568H12.7092V6.16819Z" fill="#134563"/>
</svg>
