<svg width="40" height="38" viewBox="0 0 40 38" fill="none" xmlns="http://www.w3.org/2000/svg">
<path d="M12.5 38H0.833335C0.612321 38 0.400359 37.913 0.244078 37.758C0.0877976 37.6031 0 37.393 0 37.1739V17.3478C0 17.1287 0.0877976 16.9186 0.244078 16.7637C0.400359 16.6088 0.612321 16.5217 0.833335 16.5217H12.5C12.721 16.5217 12.933 16.6088 13.0893 16.7637C13.2456 16.9186 13.3334 17.1287 13.3334 17.3478V37.1739C13.3334 37.393 13.2456 37.6031 13.0893 37.758C12.933 37.913 12.721 38 12.5 38ZM1.66667 36.3478H11.6667V18.1739H1.66667V36.3478Z" fill="black"/>
<path d="M32.9167 36.3478H17.5C15.9583 36.3478 13.1583 35.6903 11.9099 34.4544C11.7581 34.2986 11.6742 34.09 11.676 33.8734C11.6779 33.6568 11.7656 33.4496 11.9201 33.2964C12.0746 33.1432 12.2836 33.0564 12.5021 33.0545C12.7206 33.0526 12.9311 33.1359 13.0883 33.2864C13.8766 34.0678 16.145 34.6973 17.4983 34.6973H32.915C34.0633 34.6973 34.9983 33.7704 34.9983 32.6321C34.9983 32.0637 34.765 31.5317 34.34 31.1336C34.2246 31.0257 34.1426 30.8875 34.1039 30.735C34.0651 30.5825 34.0711 30.4223 34.1213 30.2731C34.1714 30.1239 34.2634 29.9921 34.3867 29.8931C34.5099 29.7941 34.6591 29.7321 34.8167 29.7143C35.3237 29.6581 35.7922 29.4192 36.1332 29.043C36.4743 28.6669 36.6641 28.1797 36.6667 27.6739C36.6667 27.1056 36.4333 26.5736 36.0083 26.1754C35.8929 26.0676 35.811 25.9293 35.7722 25.7768C35.7335 25.6244 35.7395 25.4641 35.7896 25.3149C35.8397 25.1658 35.9318 25.0339 36.055 24.9349C36.1782 24.8359 36.3274 24.7739 36.485 24.7562C36.9917 24.7002 37.46 24.4616 37.8008 24.0857C38.1416 23.7098 38.3311 23.2228 38.3333 22.7174C38.3333 21.9475 37.8967 21.247 37.1933 20.8901C37.0608 20.8243 36.9485 20.7244 36.8682 20.6009C36.7878 20.4774 36.7424 20.3348 36.7366 20.188C36.7308 20.0412 36.7649 19.8955 36.8353 19.7661C36.9056 19.6368 37.0097 19.5286 37.1367 19.4527C37.885 18.9934 38.3333 18.207 38.3333 17.3478C38.3333 15.9815 37.2117 14.8696 35.8333 14.8696H24.1666C24.032 14.8689 23.8995 14.836 23.7804 14.7737C23.6613 14.7115 23.5591 14.6216 23.4826 14.5118C23.406 14.402 23.3573 14.2755 23.3406 14.1431C23.3239 14.0106 23.3397 13.8761 23.3866 13.751C23.4033 13.7064 25 9.51487 25 6.6087C25 3.90409 22.58 1.65217 21.6666 1.65217C20.9483 1.65217 20.3466 1.91157 20 2.10157V7.43478C19.9998 7.55401 19.9736 7.6718 19.9233 7.78009L14.9233 18.5192C14.8436 18.6892 14.7086 18.8277 14.54 18.9124L12.8733 19.7385C12.7753 19.787 12.6687 19.8159 12.5595 19.8236C12.4503 19.8312 12.3406 19.8174 12.2368 19.7831C12.1329 19.7487 12.0369 19.6944 11.9543 19.6233C11.8716 19.5521 11.8039 19.4655 11.7549 19.3684C11.706 19.2713 11.6769 19.1656 11.6692 19.0574C11.6615 18.9491 11.6753 18.8404 11.71 18.7375C11.7447 18.6345 11.7994 18.5394 11.8712 18.4574C11.943 18.3755 12.0303 18.3083 12.1283 18.2598L13.5333 17.5643L18.3333 7.25304V1.65217C18.3333 1.40104 18.4483 1.16478 18.6466 1.00617C19.5228 0.366802 20.5787 0.0149988 21.6666 0C23.595 0 26.6666 3.02513 26.6666 6.6087C26.6666 8.86887 25.85 11.6825 25.3416 13.2174H35.8333C38.13 13.2174 40 15.0711 40 17.3478C40 18.3903 39.6083 19.3684 38.9167 20.1152C39.6017 20.7976 40 21.7244 40 22.7174C39.9994 23.4031 39.8066 24.0752 39.4432 24.6587C39.0797 25.2422 38.5599 25.7141 37.9417 26.0217C38.3819 26.8984 38.4537 27.9123 38.1413 28.8413C37.8289 29.7704 37.1578 30.5388 36.275 30.9783C36.5572 31.5451 36.6891 32.1738 36.6583 32.8052C36.6275 33.4365 36.4351 34.0497 36.0991 34.5869C35.7631 35.1242 35.2946 35.5677 34.7378 35.8758C34.181 36.1839 33.5543 36.3463 32.9167 36.3478Z" fill="black"/>
</svg>
