<svg width="161" height="178" viewBox="0 0 161 178" fill="none" xmlns="http://www.w3.org/2000/svg">
<g clip-path="url(#clip0_140_451)">
<path d="M128.244 60.8924C126.783 57.9974 125.156 55.1591 123.41 52.4561L120.679 54.6283C122.319 57.1692 123.831 59.8072 125.204 62.5238L128.244 60.8924Z" fill="#FFFAFF"/>
<path d="M120.681 48.4681C118.796 45.8676 116.786 43.3915 114.665 41.0578L112.497 43.9674C114.481 46.1504 116.361 48.4665 118.124 50.8989L120.681 48.4681Z" fill="#FFFAFF"/>
<path d="M131.643 79.5135C132.4 82.4257 132.995 85.3557 133.423 88.2826L137.03 88.4302C136.579 85.32 135.936 82.1661 135.124 79.053L131.643 79.5135Z" fill="#FFFAFF"/>
<path d="M130.328 65.301L127.153 66.6503C128.377 69.4229 129.462 72.2876 130.381 75.164L133.776 74.4016C132.791 71.3192 131.639 68.2784 130.328 65.301Z" fill="#FFFAFF"/>
<path d="M137.576 93.1113L133.935 92.6628C134.19 95.5756 134.274 98.4636 134.186 101.306L137.845 102.358C137.938 99.3168 137.849 96.2272 137.576 93.1113Z" fill="#FFFAFF"/>
<path d="M133.92 105.235L137.478 107.118L135.669 115.313L132.112 113.43L133.92 105.235Z" fill="#FFFAFF"/>
<path d="M150.262 116.551L148.36 112.441L134.01 119.081L131.927 117.978L123.203 99.126L120.074 100.574L130.537 123.184L133.053 124.515L150.262 116.551Z" fill="#FFFAFF"/>
</g>
<defs>
<clipPath id="clip0_140_451">
<rect width="110.204" height="144.786" fill="white" transform="translate(161 131.547) scale(1.00112) rotate(155.168)"/>
</clipPath>
</defs>
</svg>
