<svg width="26" height="35" viewBox="0 0 26 35" fill="none" xmlns="http://www.w3.org/2000/svg">
<path d="M23.5625 15.1253H21.3466V10.4489C21.3466 5.91858 17.5795 2.19207 13 2.19207C8.42045 2.19207 4.65341 5.91858 4.65341 10.4489V15.1253H2.4375V10.4489C2.4375 4.67641 7.16477 0 13 0C18.8352 0 23.5625 4.67641 23.5625 10.4489V15.1253Z" fill="#FFFAFF"/>
<path d="M22.4545 35H3.54546C1.625 35 0 33.3925 0 31.4927V17.4635C0 15.5637 1.625 13.9562 3.54546 13.9562H22.4545C24.375 13.9562 26 15.5637 26 17.4635V31.4927C26 33.4656 24.375 35 22.4545 35ZM3.54546 16.2944C2.88068 16.2944 2.36364 16.8059 2.36364 17.4635V31.4927C2.36364 32.1503 2.88068 32.6618 3.54546 32.6618H22.4545C23.1193 32.6618 23.6364 32.1503 23.6364 31.4927V17.4635C23.6364 16.8059 23.1193 16.2944 22.4545 16.2944H3.54546Z" fill="#FFFAFF"/>
<path d="M15.3636 20.9708C15.3636 22.286 14.3295 23.309 13 23.309C11.6705 23.309 10.6364 22.286 10.6364 20.9708C10.6364 19.6555 11.6705 18.6326 13 18.6326C14.3295 18.6326 15.3636 19.7286 15.3636 20.9708Z" fill="#FFFAFF"/>
<path d="M13.5909 20.9708H12.4091L11.2273 27.9854H14.7727L13.5909 20.9708Z" fill="#FFFAFF"/>
</svg>
