<svg width="27" height="27" viewBox="0 0 27 27" fill="none" xmlns="http://www.w3.org/2000/svg">
<path d="M21.7065 26.9231C20.746 27.6415 14.5825 23.0878 13.4021 23.0778C12.2216 23.0679 5.98878 27.5168 5.03942 26.7823C4.09005 26.0478 6.32196 18.5035 5.96628 17.3251C5.6106 16.1467 -0.356966 11.3152 0.0168462 10.1429C0.390741 8.97062 7.93358 8.86173 8.89415 8.14336C9.85472 7.42507 12.3995 -0.00991236 13.58 9.92222e-06C14.7603 0.0100185 17.1901 7.48702 18.1395 8.22153C19.0888 8.95595 26.6291 9.19236 26.9849 10.3708C27.3406 11.5492 21.2994 16.2792 20.9255 17.4515C20.5517 18.6238 22.6671 26.2048 21.7065 26.9231Z" fill="#F8B84E"/>
</svg>
