<svg width="171" height="181" viewBox="0 0 171 181" fill="none" xmlns="http://www.w3.org/2000/svg">
<g clip-path="url(#clip0_140_418)">
<path d="M45.7512 35.1472C44.853 35.7602 43.9824 36.4134 43.1411 37.1055L40.4051 33.4974C41.2966 32.7622 42.2356 32.0578 43.1942 31.4031L45.7512 35.1472Z" fill="#FFFAFF"/>
<path d="M24.7493 63.5734C25.1157 60.8038 25.6675 58.12 26.4009 55.5413L30.0428 57.7236C29.3551 60.1354 28.8379 62.646 28.495 65.2374L24.7493 63.5734Z" fill="#FFFAFF"/>
<path d="M37.9065 116.311C36.1661 113.571 34.5563 110.72 33.121 107.838L36.3272 106.647C37.6772 109.355 39.1735 112.005 40.8055 114.578L37.9065 116.311Z" fill="#FFFAFF"/>
<path d="M31.079 103.456C29.7998 100.51 28.6888 97.5216 27.754 94.5131L31.3085 94.1829C32.1829 96.9969 33.2221 99.7921 34.4186 102.548L31.079 103.456Z" fill="#FFFAFF"/>
<path d="M52.0798 128.845C54.1844 130.997 56.3847 133.02 58.6651 134.9L57 138.036C54.575 136.041 52.2077 133.861 49.9591 131.559L52.0798 128.845Z" fill="#FFFAFF"/>
<path d="M31.2011 54.1929L27.641 51.7625C28.5596 49.3009 29.656 46.9643 30.9219 44.7698L34.2685 47.6535C33.0845 49.7054 32.0595 51.8906 31.2011 54.1929Z" fill="#FFFAFF"/>
<path d="M40.6272 120.363L43.3526 118.37C45.1064 120.845 47.0081 123.25 49.0019 125.52L46.6671 128.004C44.5303 125.571 42.5122 123.018 40.6272 120.363Z" fill="#FFFAFF"/>
<path d="M60.7162 140.925L62.1422 137.604C64.4962 139.33 66.9144 140.899 69.3789 142.297L68.4584 145.946C65.8221 144.448 63.2351 142.771 60.7162 140.925Z" fill="#FFFAFF"/>
<path d="M26.4898 89.9904C25.737 86.9715 25.1676 83.9544 24.7858 80.9613L28.5306 81.5141C28.8868 84.3118 29.4194 87.1321 30.1245 89.9541L26.4898 89.9904Z" fill="#FFFAFF"/>
<path d="M24.3396 67.7844L28.1126 69.1771C27.9427 71.8414 27.9473 74.567 28.1262 77.3348L24.355 76.4981C24.1641 73.5418 24.1589 70.6304 24.3396 67.7844Z" fill="#FFFAFF"/>
<path d="M72.8575 144.108L72.695 148.101L80.5734 150.815L80.7358 146.822L72.8575 144.108Z" fill="#FFFAFF"/>
<path d="M36.1573 44.6779L32.9424 41.5891C34.3636 39.5533 35.9649 37.6526 37.6981 35.9391L40.607 39.3906C38.9837 40.9995 37.497 42.7661 36.1573 44.6779Z" fill="#FFFAFF"/>
<path d="M74.3835 163.833L71.8265 160.089L84.6064 151.361L84.7015 149.023L72.975 131.853L75.7617 129.949L89.8253 150.542L89.7105 153.365L74.3835 163.833Z" fill="#FFFAFF"/>
</g>
<defs>
<clipPath id="clip0_140_418">
<rect width="107.765" height="144.786" fill="white" transform="matrix(0.827495 -0.565145 -0.565145 -0.827495 81.8249 180.712)"/>
</clipPath>
</defs>
</svg>
