<svg width="66" height="133" viewBox="0 0 66 133" fill="none" xmlns="http://www.w3.org/2000/svg">
<path d="M21.6361 3.76016C20.734 4.37586 19.8597 5.03181 19.0147 5.72691L16.267 2.10326C17.1623 1.36498 18.1053 0.657525 19.068 0L21.6361 3.76016Z" fill="#FFFAFF"/>
<path d="M0.54378 32.3088C0.91173 29.5273 1.46593 26.832 2.20243 24.2421L5.86007 26.4338C5.1694 28.856 4.64999 31.3775 4.30558 33.9799L0.54378 32.3088Z" fill="#FFFAFF"/>
<path d="M13.7576 85.273C12.0097 82.5214 10.3929 79.6583 8.95156 76.7636L12.1715 75.5681C13.5273 78.2876 15.0301 80.9487 16.6691 83.5327L13.7576 85.273Z" fill="#FFFAFF"/>
<path d="M6.90069 72.3635C5.61597 69.4043 4.50018 66.4031 3.5614 63.3817L7.1312 63.05C8.00937 65.8762 9.05304 68.6834 10.2547 71.4514L6.90069 72.3635Z" fill="#FFFAFF"/>
<path d="M27.9919 97.8613C30.1056 100.022 32.3153 102.054 34.6055 103.942L32.9333 107.092C30.4979 105.088 28.1204 102.899 25.8621 100.587L27.9919 97.8613Z" fill="#FFFAFF"/>
<path d="M7.0233 22.8879L3.4479 20.447C4.37053 17.9748 5.47156 15.6282 6.74294 13.4243L10.1039 16.3203C8.91487 18.3811 7.88548 20.5756 7.0233 22.8879Z" fill="#FFFAFF"/>
<path d="M16.4901 89.3427L19.2271 87.341C20.9885 89.827 22.8984 92.2418 24.9008 94.5218L22.5559 97.0165C20.4099 94.5736 18.3831 92.0095 16.4901 89.3427Z" fill="#FFFAFF"/>
<path d="M36.6655 109.993L38.0977 106.658C40.4618 108.392 42.8903 109.967 45.3655 111.371L44.441 115.036C41.7933 113.532 39.1952 111.847 36.6655 109.993Z" fill="#FFFAFF"/>
<path d="M2.29178 58.8395C1.53568 55.8076 0.96383 52.7775 0.58042 49.7715L4.34136 50.3266C4.69909 53.1364 5.23399 55.9689 5.94209 58.803L2.29178 58.8395Z" fill="#FFFAFF"/>
<path d="M0.132325 36.5379L3.92153 37.9366C3.75096 40.6124 3.75554 43.3498 3.93523 46.1294L0.147799 45.2891C-0.0439592 42.3201 -0.04913 39.3962 0.132325 36.5379Z" fill="#FFFAFF"/>
<path d="M48.859 113.19L48.6959 117.2L56.6081 119.926L56.7713 115.916L48.859 113.19Z" fill="#FFFAFF"/>
<path d="M12.0009 13.332L8.77211 10.2298C10.1994 8.18532 11.8076 6.27643 13.5483 4.55552L16.4698 8.02192C14.8395 9.63771 13.3463 11.4119 12.0009 13.332Z" fill="#FFFAFF"/>
<path d="M50.3917 133L47.8236 129.24L60.6586 120.474L60.7541 118.126L48.977 100.882L51.7758 98.9705L65.9 119.651L65.7846 122.487L50.3917 133Z" fill="#FFFAFF"/>
</svg>
