<svg width="40" height="38" viewBox="0 0 40 38" fill="none" xmlns="http://www.w3.org/2000/svg">
<path d="M12.5 37.05H0.833335C0.612321 37.05 0.400359 36.9651 0.244078 36.8141C0.0877976 36.663 0 36.4582 0 36.2446V16.9141C0 16.7005 0.0877976 16.4956 0.244078 16.3446C0.400359 16.1936 0.612321 16.1087 0.833335 16.1087H12.5C12.721 16.1087 12.933 16.1936 13.0893 16.3446C13.2456 16.4956 13.3334 16.7005 13.3334 16.9141V36.2446C13.3334 36.4582 13.2456 36.663 13.0893 36.8141C12.933 36.9651 12.721 37.05 12.5 37.05ZM1.66667 35.4391H11.6667V17.7196H1.66667V35.4391Z" fill="black"/>
<path d="M32.9167 35.4391H17.5C15.9583 35.4391 13.1583 34.798 11.9099 33.5931C11.7581 33.4412 11.6742 33.2377 11.676 33.0265C11.6779 32.8153 11.7656 32.6133 11.9201 32.464C12.0746 32.3147 12.2836 32.23 12.5021 32.2281C12.7206 32.2263 12.9311 32.3075 13.0883 32.4542C13.8766 33.2161 16.145 33.8299 17.4983 33.8299H32.915C34.0633 33.8299 34.9983 32.9262 34.9983 31.8163C34.9983 31.2621 34.765 30.7434 34.34 30.3552C34.2246 30.2501 34.1426 30.1153 34.1039 29.9666C34.0651 29.818 34.0711 29.6617 34.1213 29.5163C34.1714 29.3708 34.2634 29.2423 34.3867 29.1457C34.5099 29.0492 34.6591 28.9888 34.8167 28.9715C35.3237 28.9166 35.7922 28.6837 36.1332 28.3169C36.4743 27.9502 36.6641 27.4752 36.6667 26.9821C36.6667 26.4279 36.4333 25.9092 36.0083 25.521C35.8929 25.4159 35.811 25.281 35.7722 25.1324C35.7335 24.9838 35.7395 24.8275 35.7896 24.6821C35.8397 24.5366 35.9318 24.408 36.055 24.3115C36.1782 24.215 36.3274 24.1545 36.485 24.1373C36.9917 24.0827 37.46 23.8501 37.8008 23.4836C38.1416 23.117 38.3311 22.6422 38.3333 22.1495C38.3333 21.3988 37.8967 20.7158 37.1933 20.3678C37.0608 20.3037 36.9485 20.2063 36.8682 20.0859C36.7878 19.9655 36.7424 19.8264 36.7366 19.6833C36.7308 19.5401 36.7649 19.3981 36.8353 19.272C36.9056 19.1459 37.0097 19.0403 37.1367 18.9664C37.885 18.5186 38.3333 17.7518 38.3333 16.9141C38.3333 15.5819 37.2117 14.4978 35.8333 14.4978H24.1666C24.032 14.4972 23.8995 14.4651 23.7804 14.4044C23.6613 14.3437 23.5591 14.2561 23.4826 14.149C23.406 14.042 23.3573 13.9186 23.3406 13.7895C23.3239 13.6604 23.3397 13.5292 23.3866 13.4073C23.4033 13.3638 25 9.277 25 6.44348C25 3.80648 22.58 1.61087 21.6666 1.61087C20.9483 1.61087 20.3466 1.86378 20 2.04903V7.24891C19.9998 7.36516 19.9736 7.48001 19.9233 7.58558L14.9233 18.0562C14.8436 18.222 14.7086 18.357 14.54 18.4396L12.8733 19.2451C12.7753 19.2923 12.6687 19.3205 12.5595 19.328C12.4503 19.3354 12.3406 19.322 12.2368 19.2885C12.1329 19.255 12.0369 19.202 11.9543 19.1327C11.8716 19.0633 11.8039 18.9789 11.7549 18.8842C11.706 18.7896 11.6769 18.6865 11.6692 18.581C11.6615 18.4754 11.6753 18.3694 11.71 18.269C11.7447 18.1687 11.7994 18.0759 11.8712 17.996C11.943 17.9161 12.0303 17.8506 12.1283 17.8033L13.5333 17.1252L18.3333 7.07172V1.61087C18.3333 1.36602 18.4483 1.13566 18.6466 0.98102C19.5228 0.357632 20.5787 0.0146238 21.6666 0C23.595 0 26.6666 2.9495 26.6666 6.44348C26.6666 8.64715 25.85 11.3905 25.3416 12.887H35.8333C38.13 12.887 40 14.6944 40 16.9141C40 17.9306 39.6083 18.8842 38.9167 19.6123C39.6017 20.2776 40 21.1813 40 22.1495C39.9994 22.8181 39.8066 23.4734 39.4432 24.0422C39.0797 24.6111 38.5599 25.0712 37.9417 25.3712C38.3819 26.2259 38.4537 27.2145 38.1413 28.1203C37.8289 29.0261 37.1578 29.7753 36.275 30.2038C36.5572 30.7565 36.6891 31.3695 36.6583 31.985C36.6275 32.6006 36.4351 33.1985 36.0991 33.7223C35.7631 34.2461 35.2946 34.6785 34.7378 34.9789C34.181 35.2793 33.5543 35.4377 32.9167 35.4391Z" fill="black"/>
</svg>
