<svg width="138" height="139" viewBox="0 0 138 139" fill="none" xmlns="http://www.w3.org/2000/svg">
<path fill-rule="evenodd" clip-rule="evenodd" d="M26.1552 53.9065H118.593C118.593 60.2588 122.026 65.8068 127.136 68.8018L135.843 60.0949C129.107 53.3588 129.107 42.4375 135.843 35.6992C125.981 25.8366 112.163 12.0194 102.301 2.15673C95.5625 8.89283 84.6411 8.89283 77.905 2.15673L26.1552 53.9065ZM16.3508 63.711C15.1648 65.4252 13.6749 66.9152 11.9607 68.1011L16.3508 63.711Z" fill="#6337B0"/>
<path fill-rule="evenodd" clip-rule="evenodd" d="M135.843 71.1565C126.317 71.1565 118.593 63.4328 118.593 53.9065C92.9491 53.9065 45.0504 53.9065 19.4062 53.9065C19.4062 63.4328 11.6825 71.1565 2.15624 71.1565C2.15624 85.103 2.15624 104.647 2.15624 118.594C11.6825 118.594 19.4062 126.317 19.4062 135.844C45.0504 135.844 92.9491 135.844 118.593 135.844C118.593 126.317 126.317 118.594 135.843 118.594C135.843 104.647 135.843 85.103 135.843 71.1565Z" fill="#D3433A"/>
<path fill-rule="evenodd" clip-rule="evenodd" d="M137.999 71.158C137.999 69.9688 137.033 69.0032 135.843 69.0032C127.507 69.0032 120.75 62.2445 120.75 53.9091C120.75 52.7176 119.784 51.7521 118.593 51.7521C92.9491 51.7521 45.0504 51.7521 19.4062 51.7521C18.2159 51.7521 17.2499 52.7176 17.2499 53.9091C17.2499 62.2445 10.4923 69.0032 2.15624 69.0032C0.965996 69.0032 0 69.9688 0 71.158C0 85.1073 0 104.648 0 118.598C0 119.787 0.965996 120.752 2.15624 120.752C10.4923 120.752 17.2499 127.511 17.2499 135.846C17.2499 137.038 18.2159 138.003 19.4062 138.003C45.0504 138.003 92.9491 138.003 118.593 138.003C119.784 138.003 120.75 137.038 120.75 135.846C120.75 127.511 127.507 120.752 135.843 120.752C137.033 120.752 137.999 119.787 137.999 118.598C137.999 104.648 137.999 85.1073 137.999 71.158ZM133.687 73.1976V116.558C124.691 117.552 117.55 124.694 116.556 133.69H21.4438C20.4498 124.694 13.3083 117.552 4.31248 116.558V73.1976C13.3083 72.2033 20.4498 65.0614 21.4438 56.066H116.556C117.55 65.0614 124.691 72.2033 133.687 73.1976Z" fill="black"/>
<path fill-rule="evenodd" clip-rule="evenodd" d="M17.2499 73.3158V77.6283C17.2499 78.8185 18.2159 79.7845 19.4062 79.7845C20.5964 79.7845 21.5624 78.8185 21.5624 77.6283V73.3158C21.5624 72.1255 20.5964 71.1595 19.4062 71.1595C18.2159 71.1595 17.2499 72.1255 17.2499 73.3158Z" fill="black"/>
<path fill-rule="evenodd" clip-rule="evenodd" d="M116.437 73.3158V77.6283C116.437 78.8185 117.403 79.7845 118.593 79.7845C119.784 79.7845 120.75 78.8185 120.75 77.6283V73.3158C120.75 72.1255 119.784 71.1595 118.593 71.1595C117.403 71.1595 116.437 72.1255 116.437 73.3158Z" fill="black"/>
<path fill-rule="evenodd" clip-rule="evenodd" d="M90.1059 17.4059L93.1553 20.4553C93.997 21.2969 95.3631 21.2969 96.2047 20.4553C97.0464 19.6136 97.0464 18.2475 96.2047 17.4059L93.1553 14.3565C92.3137 13.5148 90.9476 13.5148 90.1059 14.3565C89.2643 15.1981 89.2643 16.5642 90.1059 17.4059Z" fill="black"/>
<path fill-rule="evenodd" clip-rule="evenodd" d="M17.2499 86.2532V90.5657C17.2499 91.756 18.2159 92.722 19.4062 92.722C20.5964 92.722 21.5624 91.756 21.5624 90.5657V86.2532C21.5624 85.063 20.5964 84.097 19.4062 84.097C18.2159 84.097 17.2499 85.063 17.2499 86.2532Z" fill="black"/>
<path fill-rule="evenodd" clip-rule="evenodd" d="M116.437 86.2532V90.5657C116.437 91.756 117.403 92.722 118.593 92.722C119.784 92.722 120.75 91.756 120.75 90.5657V86.2532C120.75 85.063 119.784 84.097 118.593 84.097C117.403 84.097 116.437 85.063 116.437 86.2532Z" fill="black"/>
<path fill-rule="evenodd" clip-rule="evenodd" d="M99.2528 26.5552L102.302 29.6046C103.144 30.4462 104.51 30.4462 105.352 29.6046C106.193 28.763 106.193 27.3968 105.352 26.5552L102.302 23.5058C101.461 22.6642 100.094 22.6642 99.2528 23.5058C98.4112 24.3474 98.4112 25.7135 99.2528 26.5552Z" fill="black"/>
<path fill-rule="evenodd" clip-rule="evenodd" d="M17.2499 99.1907V103.503C17.2499 104.693 18.2159 105.659 19.4062 105.659C20.5964 105.659 21.5624 104.693 21.5624 103.503V99.1907C21.5624 98.0004 20.5964 97.0344 19.4062 97.0344C18.2159 97.0344 17.2499 98.0004 17.2499 99.1907Z" fill="black"/>
<path fill-rule="evenodd" clip-rule="evenodd" d="M116.437 99.1907V103.503C116.437 104.693 117.403 105.659 118.593 105.659C119.784 105.659 120.75 104.693 120.75 103.503V99.1907C120.75 98.0004 119.784 97.0344 118.593 97.0344C117.403 97.0344 116.437 98.0004 116.437 99.1907Z" fill="black"/>
<path fill-rule="evenodd" clip-rule="evenodd" d="M108.401 35.7039L111.451 38.7533C112.292 39.5949 113.658 39.5949 114.5 38.7533C115.342 37.9117 115.342 36.5455 114.5 35.7039L111.451 32.6545C110.609 31.8129 109.243 31.8129 108.401 32.6545C107.56 33.4961 107.56 34.8623 108.401 35.7039Z" fill="black"/>
<path fill-rule="evenodd" clip-rule="evenodd" d="M17.2499 112.128V116.441C17.2499 117.631 18.2159 118.597 19.4062 118.597C20.5964 118.597 21.5624 117.631 21.5624 116.441V112.128C21.5624 110.938 20.5964 109.972 19.4062 109.972C18.2159 109.972 17.2499 110.938 17.2499 112.128Z" fill="black"/>
<path fill-rule="evenodd" clip-rule="evenodd" d="M116.437 112.128V116.441C116.437 117.631 117.403 118.597 118.593 118.597C119.784 118.597 120.75 117.631 120.75 116.441V112.128C120.75 110.938 119.784 109.972 118.593 109.972C117.403 109.972 116.437 110.938 116.437 112.128Z" fill="black"/>
<path fill-rule="evenodd" clip-rule="evenodd" d="M117.55 44.8505L120.6 47.8999C121.441 48.7415 122.808 48.7415 123.649 47.8999C124.491 47.0582 124.491 45.6921 123.649 44.8505L120.6 41.8011C119.758 40.9594 118.392 40.9594 117.55 41.8011C116.709 42.6427 116.709 44.0088 117.55 44.8505Z" fill="black"/>
<path fill-rule="evenodd" clip-rule="evenodd" d="M24.6307 52.3821C24.0141 52.9988 23.8286 53.926 24.1628 54.7324C24.497 55.5367 25.2819 56.0628 26.1552 56.0628H116.556C117.243 62.2944 120.885 67.6375 126.047 70.6627C126.895 71.1565 127.969 71.0185 128.661 70.3263L137.368 61.6194C138.211 60.7785 138.211 59.4115 137.368 58.5705C131.473 52.6754 131.473 43.1189 137.368 37.2237C138.211 36.3828 138.211 35.0179 137.368 34.1748C127.505 24.3122 113.688 10.495 103.825 0.632318C102.982 -0.210773 101.617 -0.210773 100.776 0.632318C94.8811 6.52748 85.3246 6.52748 79.4295 0.632318C78.5885 -0.210773 77.2215 -0.210773 76.3805 0.632318L24.6307 52.3821ZM18.1232 64.9379C18.7593 64.0193 18.5889 62.7709 17.7329 62.055C16.8747 61.3413 15.6155 61.3974 14.8263 62.1865L10.4362 66.5767C9.647 67.3659 9.59096 68.6251 10.3047 69.4833C11.0205 70.3393 12.269 70.5097 13.1876 69.8736C15.1152 68.5389 16.7906 66.8656 18.1232 64.9379ZM31.3604 51.7503L77.9891 5.12161C85.0529 10.7796 95.1528 10.7796 102.217 5.12161L132.878 35.7834C127.22 42.8472 127.22 52.947 132.878 60.0109L126.856 66.0333C123.152 63.2841 120.75 58.8746 120.75 53.9066C120.75 52.7163 119.784 51.7503 118.593 51.7503H31.3604Z" fill="black"/>
</svg>
