<svg width="21" height="22" viewBox="0 0 21 22" fill="none" xmlns="http://www.w3.org/2000/svg">
<path fill-rule="evenodd" clip-rule="evenodd" d="M21 11.1571C21 10.3836 20.9318 9.63979 20.8052 8.92574H10.7143V13.1456H16.4805C16.2322 14.5092 15.4773 15.6646 14.3425 16.4381V19.1753H17.8052C19.8312 17.2762 21 14.4795 21 11.1571Z" fill="#4285F4"/>
<path fill-rule="evenodd" clip-rule="evenodd" d="M10.7142 21.818C13.6071 21.818 16.0324 20.8412 17.8052 19.175L14.3425 16.4378C13.3831 17.0924 12.1558 17.4792 10.7142 17.4792C7.92365 17.4792 5.56163 15.5602 4.7191 12.9816H1.13955V15.8081C2.90254 19.3734 6.52592 21.818 10.7142 21.818Z" fill="#34A853"/>
<path fill-rule="evenodd" clip-rule="evenodd" d="M4.71916 12.9818C4.50487 12.3272 4.38312 11.6281 4.38312 10.9091C4.38312 10.1901 4.50487 9.49088 4.71916 8.83633V6.00989H1.13961C0.413961 7.48261 0 9.14873 0 10.9091C0 12.6694 0.413961 14.3355 1.13961 15.8082L4.71916 12.9818Z" fill="#FBBC05"/>
<path fill-rule="evenodd" clip-rule="evenodd" d="M10.7142 4.33885C12.2873 4.33885 13.6996 4.88926 14.81 5.97025L17.8831 2.84132C16.0276 1.08099 13.6022 0 10.7142 0C6.52592 0 2.90254 2.44463 1.13955 6.00992L4.7191 8.83637C5.56163 6.25786 7.92365 4.33885 10.7142 4.33885Z" fill="#EA4335"/>
</svg>
