<svg width="41" height="78" viewBox="0 0 41 78" fill="none" xmlns="http://www.w3.org/2000/svg">
<path d="M24.1141 15.796C22.7757 13.3355 21.171 10.9809 19.3457 8.79725L14.5867 11.7829C16.2998 13.8361 17.7912 16.0245 19.0506 18.3328L24.1141 15.796Z" fill="#FFFAFF"/>
<path d="M16.4239 5.62092C14.3598 3.58099 12.07 1.70282 9.57094 0L5.44091 3.5555C7.77838 5.14833 9.92024 6.90511 11.851 8.81313L16.4239 5.62092Z" fill="#FFFAFF"/>
<path d="M23.6886 33.4092C23.9619 36.0966 23.9854 38.8501 23.759 41.6501L29.1463 40.7239C29.3923 37.7476 29.3635 34.7843 29.0678 31.9122L23.6886 33.4092Z" fill="#FFFAFF"/>
<path d="M25.939 19.5854L20.7572 21.88C21.7751 24.2887 22.5551 26.8312 23.0824 29.4347L28.4212 27.6615C27.8567 24.8715 27.0273 22.173 25.939 19.5854Z" fill="#FFFAFF"/>
<path d="M28.5748 45.2435L23.2247 45.879C22.7427 48.7162 22.0097 51.5798 21.031 54.4487L26.2272 54.4116C27.2726 51.3425 28.057 48.279 28.5748 45.2435Z" fill="#FFFAFF"/>
<path d="M19.461 58.4576L24.2573 59.2819L19.0945 68.0172L14.2982 67.1929L19.461 58.4576Z" fill="#FFFAFF"/>
<path d="M40.6982 64.912L39.0576 61.3666L15.4745 72.2796L12.6663 71.797L5.14243 55.5379L0 57.9175L9.02338 77.4171L12.4149 78L40.6982 64.912Z" fill="#FFFAFF"/>
</svg>
