<svg width="27" height="26" viewBox="0 0 27 26" fill="none" xmlns="http://www.w3.org/2000/svg">
<path d="M21.7065 25.926C20.746 26.6178 14.5825 22.2327 13.4021 22.223C12.2216 22.2135 5.98878 26.4977 5.03942 25.7904C4.09005 25.0831 6.32196 17.8182 5.96628 16.6834C5.6106 15.5486 -0.356966 10.8961 0.0168462 9.76725C0.390741 8.63837 7.93358 8.53352 8.89415 7.84175C9.85472 7.15007 12.3995 -0.00954524 13.58 9.55473e-06C14.7603 0.00964743 17.1901 7.20973 18.1395 7.91703C19.0888 8.62425 26.6291 8.8519 26.9849 9.98668C27.3406 11.1215 21.2994 15.6763 20.9255 16.8051C20.5517 17.934 22.6671 25.2342 21.7065 25.926Z" fill="#F8B84E"/>
</svg>
