<svg width="40" height="38" viewBox="0 0 40 38" fill="none" xmlns="http://www.w3.org/2000/svg">
<path d="M12.5 20.9413H0.833334C0.61232 20.9413 0.400358 20.8564 0.244078 20.7054C0.0877974 20.5543 0 20.3495 0 20.1359V0.805434C0 0.59182 0.0877974 0.386954 0.244078 0.235906C0.400358 0.084858 0.61232 0 0.833334 0H12.5C12.721 0 12.933 0.084858 13.0893 0.235906C13.2455 0.386954 13.3333 0.59182 13.3333 0.805434V20.1359C13.3333 20.3495 13.2455 20.5543 13.0893 20.7054C12.933 20.8564 12.721 20.9413 12.5 20.9413ZM1.66667 19.3304H11.6667V1.61087H1.66667V19.3304Z" fill="black"/>
<path d="M21.6667 37.05C19.9367 37.05 18.6983 36.1093 18.645 36.069C18.5477 35.9932 18.4691 35.8972 18.4152 35.7882C18.3613 35.6792 18.3333 35.56 18.3333 35.4391V29.9783L13.5317 19.9249L12.1267 19.2467C12.0287 19.1994 11.9414 19.1339 11.8696 19.054C11.7978 18.9741 11.743 18.8813 11.7084 18.781C11.6737 18.6806 11.6598 18.5746 11.6675 18.4691C11.6753 18.3635 11.7044 18.2605 11.7533 18.1658C11.8521 17.9746 12.0254 17.8292 12.2352 17.7615C12.339 17.728 12.4487 17.7146 12.5579 17.722C12.6671 17.7295 12.7737 17.7577 12.8717 17.805L14.5383 18.6104C14.7077 18.6921 14.843 18.8274 14.9217 18.9938L19.9217 29.4644C19.9733 29.5696 20.0001 29.6846 20 29.8011V35.001C20.345 35.1862 20.9483 35.4391 21.6667 35.4391C22.58 35.4391 25 33.2435 25 30.6065C25 27.773 23.4033 23.6846 23.3883 23.6444C23.3406 23.5225 23.3242 23.3913 23.3405 23.262C23.3567 23.1327 23.4052 23.0091 23.4817 22.9019C23.5583 22.7947 23.6606 22.707 23.7799 22.6463C23.8992 22.5857 24.0319 22.554 24.1667 22.5538H35.8333C37.2117 22.5538 38.3333 21.4697 38.3333 20.1375C38.3333 19.2998 37.885 18.5331 37.135 18.0869C37.0103 18.0112 36.9085 17.9052 36.8397 17.7794C36.771 17.6535 36.7379 17.5124 36.7436 17.3703C36.7494 17.2281 36.7938 17.0899 36.8725 16.9697C36.9512 16.8494 37.0613 16.7514 37.1917 16.6854C37.8967 16.3342 38.3333 15.6512 38.3333 14.9006C38.3333 13.8841 37.5383 13.0303 36.4867 12.9144C36.3851 13.0061 36.2613 13.0718 36.1266 13.1052C35.9919 13.1387 35.8507 13.1389 35.7159 13.1059C35.5811 13.0728 35.4571 13.0076 35.3552 12.9161C35.2533 12.8247 35.1768 12.71 35.1327 12.5825C35.0886 12.455 35.0784 12.3189 35.103 12.1866C35.1275 12.0543 35.1861 11.9301 35.2733 11.8254C35.3604 11.7207 35.4734 11.6388 35.6019 11.5873C35.7303 11.5358 35.8701 11.5163 36.0083 11.5306C36.4317 11.1424 36.6667 10.6221 36.6667 10.068C36.6667 9.05149 35.8717 8.19773 34.82 8.08175C34.7184 8.17434 34.5943 8.24071 34.4592 8.27474C34.324 8.30877 34.1822 8.30936 34.0468 8.27647C33.9114 8.24358 33.7867 8.17826 33.6842 8.08653C33.5818 7.9948 33.5049 7.87962 33.4607 7.75161C33.4164 7.6236 33.4062 7.48688 33.431 7.35406C33.4559 7.22124 33.5149 7.0966 33.6026 6.99163C33.6904 6.88666 33.8041 6.80474 33.9333 6.75342C34.0624 6.70211 34.2029 6.68305 34.3417 6.69801C34.765 6.3098 35 5.78948 35 5.23535C35 4.12546 34.065 3.22176 32.9167 3.22176H17.5C16.1467 3.22176 13.8783 3.8355 13.09 4.59744C12.9328 4.74416 12.7223 4.82534 12.5038 4.82351C12.2853 4.82167 12.0763 4.73696 11.9218 4.58763C11.7673 4.4383 11.6797 4.23628 11.6778 4.0251C11.6759 3.81392 11.7599 3.61047 11.9117 3.45856C13.16 2.25363 15.9583 1.61089 17.5 1.61089H32.9167C33.5543 1.61237 34.181 1.77076 34.7378 2.07113C35.2946 2.3715 35.7631 2.80397 36.0991 3.32775C36.4351 3.85154 36.6275 4.4494 36.6583 5.06497C36.6891 5.68054 36.5572 6.29355 36.275 6.84621C37.1581 7.27439 37.8295 8.02359 38.1419 8.92951C38.4544 9.83544 38.3824 10.8241 37.9417 11.6788C38.4678 11.9345 38.9238 12.3069 39.2725 12.7655C39.6212 13.2242 39.8527 13.7561 39.9479 14.3178C40.0432 14.8794 39.9995 15.4549 39.8206 15.9972C39.6416 16.5394 39.3325 17.033 38.9183 17.4377C39.6083 18.1674 40 19.1194 40 20.1359C40 22.3557 38.1317 24.1631 35.8333 24.1631H25.34C25.85 25.6595 26.6667 28.4029 26.6667 30.6065C26.6667 34.1021 23.595 37.05 21.6667 37.05Z" fill="black"/>
</svg>
