<svg width="23" height="17" viewBox="0 0 23 17" fill="none" xmlns="http://www.w3.org/2000/svg">
<path d="M21.3566 6.80023H5.59594L9.37586 2.91108C9.68533 2.59128 9.85918 2.15753 9.85918 1.70527C9.85918 1.253 9.68533 0.819261 9.37586 0.499461C9.0664 0.179661 8.64667 0 8.20902 0C7.77137 0 7.35164 0.179661 7.04217 0.499461L0.468403 7.29274C0.318783 7.45426 0.201499 7.64472 0.12328 7.85319C-0.0410935 8.26666 -0.0410935 8.73044 0.12328 9.14391C0.201499 9.35238 0.318783 9.54284 0.468403 9.70436L7.04217 16.4976C7.19495 16.6568 7.37672 16.7832 7.57699 16.8694C7.77726 16.9556 7.99206 17 8.20902 17C8.42597 17 8.64078 16.9556 8.84105 16.8694C9.04132 16.7832 9.22308 16.6568 9.37586 16.4976C9.5299 16.3398 9.65216 16.1519 9.7356 15.945C9.81903 15.738 9.86199 15.516 9.86199 15.2918C9.86199 15.0676 9.81903 14.8457 9.7356 14.6387C9.65216 14.4317 9.5299 14.2439 9.37586 14.086L5.59594 10.1969H21.3566C21.7924 10.1969 22.2104 10.0179 22.5186 9.69945C22.8269 9.38095 23 8.94897 23 8.49855C23 8.04813 22.8269 7.61615 22.5186 7.29766C22.2104 6.97916 21.7924 6.80023 21.3566 6.80023Z" fill="#FFFAFF"/>
</svg>
